/usr/bin/start-video-rec.sh: line 93: kill: (805) - No such process
ffmpeg version 2.8.17-0ubuntu0.1 Copyright (c) 2000-2020 the FFmpeg developers
  built with gcc 5.4.0 (Ubuntu 5.4.0-6ubuntu1~16.04.12) 20160609
  configuration: --prefix=/usr --extra-version=0ubuntu0.1 --build-suffix=-ffmpeg --toolchain=hardened --libdir=/usr/lib/x86_64-linux-gnu --incdir=/usr/include/x86_64-linux-gnu --cc=cc --cxx=g++ --enable-gpl --enable-shared --disable-stripping --disable-decoder=libopenjpeg --disable-decoder=libschroedinger --enable-avresample --enable-avisynth --enable-gnutls --enable-ladspa --enable-libass --enable-libbluray --enable-libbs2b --enable-libcaca --enable-libcdio --enable-libflite --enable-libfontconfig --enable-libfreetype --enable-libfribidi --enable-libgme --enable-libgsm --enable-libmodplug --enable-libmp3lame --enable-libopenjpeg --enable-libopus --enable-libpulse --enable-librtmp --enable-libschroedinger --enable-libshine --enable-libsnappy --enable-libsoxr --enable-libspeex --enable-libssh --enable-libtheora --enable-libtwolame --enable-libvorbis --enable-libvpx --enable-libwavpack --enable-libwebp --enable-libx265 --enable-libxvid --enable-libzvbi --enable-openal --enable-opengl --enable-x11grab --enable-libdc1394 --enable-libiec61883 --enable-libzmq --enable-frei0r --enable-libx264 --enable-libopencv
  libavutil      54. 31.100 / 54. 31.100
  libavcodec     56. 60.100 / 56. 60.100
  libavformat    56. 40.101 / 56. 40.101
  libavdevice    56.  4.100 / 56.  4.100
  libavfilter     5. 40.101 /  5. 40.101
  libavresample   2.  1.  0 /  2.  1.  0
  libswscale      3.  1.101 /  3.  1.101
  libswresample   1.  2.101 /  1.  2.101
  libpostproc    53.  3.100 / 53.  3.100
Input #0, matroska,webm, from '/home/seluser/videos/vid_chrome_or_firefox_40004.mkv':
  Metadata:
    ENCODER         : Lavf56.40.101
  Duration: 00:02:01.60, start: 0.000000, bitrate: 49 kb/s
    Stream #0:0: Video: h264 (Constrained Baseline), yuv420p, 1366x768, SAR 1:1 DAR 683:384, 10 fps, 10 tbr, 1k tbn, 20 tbc (default)
    Metadata:
      ENCODER         : Lavc56.60.100 libx264
      DURATION        : 00:02:01.600000000
[libx264 @ 0x7be2c0] using SAR=1/1
[libx264 @ 0x7be2c0] using cpu capabilities: MMX2 SSE2Fast SSSE3 SSE4.2 AVX FMA3 AVX2 LZCNT BMI2
[libx264 @ 0x7be2c0] profile Constrained Baseline, level 3.2
[libx264 @ 0x7be2c0] 264 - core 148 r2643 5c65704 - H.264/MPEG-4 AVC codec - Copyleft 2003-2015 - http://www.videolan.org/x264.html - options: cabac=0 ref=1 deblock=0:0:0 analyse=0:0 me=dia subme=0 psy=1 psy_rd=1.00:0.00 mixed_ref=0 me_range=16 chroma_me=1 trellis=0 8x8dct=0 cqm=0 deadzone=21,11 fast_pskip=1 chroma_qp_offset=0 threads=3 lookahead_threads=1 sliced_threads=0 nr=0 decimate=1 interlaced=0 bluray_compat=0 constrained_intra=0 bframes=0 weightp=0 keyint=250 keyint_min=10 scenecut=0 intra_refresh=0 rc=crf mbtree=0 crf=23.0 qcomp=0.60 qpmin=0 qpmax=69 qpstep=4 ip_ratio=1.40 aq=0
Output #0, mp4, to '/home/seluser/videos/vid_chrome_or_firefox_40004.mp4':
  Metadata:
    encoder         : Lavf56.40.101
    Stream #0:0: Video: h264 (libx264) ([33][0][0][0] / 0x0021), yuv420p, 1366x768 [SAR 1:1 DAR 683:384], q=-1--1, 10 fps, 10240 tbn, 10 tbc (default)
    Metadata:
      DURATION        : 00:02:01.600000000
      encoder         : Lavc56.60.100 libx264
Stream mapping:
  Stream #0:0 -> #0:0 (h264 (native) -> h264 (libx264))
Press [q] to stop, [?] for help
frame=    7 fps=0.0 q=11.0 size=      24kB time=00:00:00.30 bitrate= 645.5kbits/s    
frame=   17 fps= 14 q=9.0 size=      41kB time=00:00:01.30 bitrate= 258.7kbits/s    
frame=   25 fps= 15 q=9.0 size=      42kB time=00:00:02.10 bitrate= 162.5kbits/s    
frame=   38 fps= 17 q=9.0 size=      44kB time=00:00:03.40 bitrate= 106.7kbits/s    
frame=   48 fps= 17 q=9.0 size=      46kB time=00:00:04.40 bitrate=  85.9kbits/s    
frame=   57 fps= 17 q=9.0 size=      48kB time=00:00:05.30 bitrate=  74.6kbits/s    
frame=   66 fps= 17 q=10.0 size=      50kB time=00:00:06.20 bitrate=  65.5kbits/s    
frame=   78 fps= 18 q=10.0 size=      60kB time=00:00:07.40 bitrate=  66.9kbits/s    
frame=   91 fps= 18 q=11.0 size=     155kB time=00:00:08.70 bitrate= 146.2kbits/s    
frame=   99 fps= 18 q=9.0 size=     179kB time=00:00:09.50 bitrate= 154.1kbits/s    
frame=  110 fps= 18 q=9.0 size=     181kB time=00:00:10.60 bitrate= 140.3kbits/s    
frame=  120 fps= 18 q=9.0 size=     182kB time=00:00:11.60 bitrate= 128.7kbits/s    
frame=  131 fps= 18 q=9.0 size=     182kB time=00:00:12.70 bitrate= 117.7kbits/s    
frame=  139 fps= 18 q=9.0 size=     183kB time=00:00:13.50 bitrate= 110.8kbits/s    
frame=  151 fps= 18 q=9.0 size=     183kB time=00:00:14.70 bitrate= 101.9kbits/s    
frame=  162 fps= 18 q=9.0 size=     183kB time=00:00:15.80 bitrate=  94.9kbits/s    
frame=  170 fps= 18 q=9.0 size=     183kB time=00:00:16.60 bitrate=  90.5kbits/s    
frame=  179 fps= 18 q=9.0 size=     184kB time=00:00:17.50 bitrate=  85.9kbits/s    
frame=  185 fps= 18 q=9.0 size=     184kB time=00:00:18.10 bitrate=  83.2kbits/s    
frame=  194 fps= 18 q=9.0 size=     184kB time=00:00:19.00 bitrate=  79.3kbits/s    
frame=  205 fps= 18 q=9.0 size=     184kB time=00:00:20.10 bitrate=  75.1kbits/s    
frame=  217 fps= 18 q=9.0 size=     184kB time=00:00:21.30 bitrate=  70.9kbits/s    
frame=  230 fps= 18 q=9.0 size=     185kB time=00:00:22.60 bitrate=  66.9kbits/s    
frame=  242 fps= 19 q=9.0 size=     185kB time=00:00:23.80 bitrate=  63.6kbits/s    
frame=  251 fps= 19 q=9.0 size=     185kB time=00:00:24.70 bitrate=  61.4kbits/s    
frame=  258 fps= 18 q=11.0 size=     313kB time=00:00:25.40 bitrate= 100.9kbits/s    
frame=  274 fps= 19 q=9.0 size=     313kB time=00:00:27.00 bitrate=  95.1kbits/s    
frame=  289 fps= 19 q=9.0 size=     314kB time=00:00:28.50 bitrate=  90.2kbits/s    
frame=  302 fps= 19 q=9.0 size=     314kB time=00:00:29.80 bitrate=  86.3kbits/s    
frame=  312 fps= 19 q=9.0 size=     314kB time=00:00:30.80 bitrate=  83.6kbits/s    
frame=  322 fps= 19 q=9.0 size=     314kB time=00:00:31.80 bitrate=  81.0kbits/s    
frame=  331 fps= 19 q=9.0 size=     315kB time=00:00:32.70 bitrate=  78.8kbits/s    
frame=  345 fps= 19 q=9.0 size=     315kB time=00:00:34.10 bitrate=  75.7kbits/s    
frame=  361 fps= 20 q=9.0 size=     315kB time=00:00:35.70 bitrate=  72.3kbits/s    
frame=  374 fps= 20 q=9.0 size=     316kB time=00:00:37.00 bitrate=  69.9kbits/s    
frame=  384 fps= 20 q=-1.0 Lsize=     318kB time=00:00:38.40 bitrate=  67.9kbits/s    
video:316kB audio:0kB subtitle:0kB other streams:0kB global headers:0kB muxing overhead: 0.728594%
[libx264 @ 0x7be2c0] frame I:2     Avg QP:13.00  size: 72810
[libx264 @ 0x7be2c0] frame P:382   Avg QP: 9.30  size:   464
[libx264 @ 0x7be2c0] mb I  I16..4: 100.0%  0.0%  0.0%
[libx264 @ 0x7be2c0] mb P  I16..4:  0.4%  0.0%  0.0%  P16..4:  0.4%  0.0%  0.0%  0.0%  0.0%    skip:99.2%
[libx264 @ 0x7be2c0] coded y,uvDC,uvAC intra: 11.6% 9.1% 8.6% inter: 0.2% 0.2% 0.1%
[libx264 @ 0x7be2c0] i16 v,h,dc,p: 73% 25%  1%  0%
[libx264 @ 0x7be2c0] i8c dc,h,v,p: 74% 23%  3%  0%
[libx264 @ 0x7be2c0] kb/s:67.27
Exiting normally, received signal 15.
